<svg width="789" height="425" viewBox="0 0 789 425" fill="none" xmlns="http://www.w3.org/2000/svg">
<g style="mix-blend-mode:saturation">
<path d="M415.156 6.63169L294.495 411.189C292.622 417.529 296.512 424.156 302.13 424.156H362.281C365.739 424.156 368.836 421.491 369.917 417.601L449.805 137.594C452.327 128.806 462.7 128.878 465.149 137.666L542.373 417.457C543.453 421.419 546.551 424.084 550.08 424.084L608.502 424.084C614.121 424.084 618.011 417.457 616.138 411.117L495.26 6.55958C494.108 2.74164 491.082 0.148437 487.625 0.148437L422.792 0.148437C419.406 0.148437 416.308 2.74164 415.156 6.55958V6.63169Z" fill="#FA921C"/>
<path d="M655.83 417.747L535.169 13.1892C533.296 6.84994 537.186 0.222656 542.805 0.222656L602.956 0.222656C606.413 0.222656 609.511 2.88782 610.591 6.7778L690.48 286.784C693.001 295.573 703.375 295.501 705.824 286.712L783.047 6.92201C784.128 2.96 784.97 0.776367 788.5 0.776367V121.776C788.5 132.276 788.5 233.776 788.5 241.776L735.935 417.819C734.783 421.637 731.757 424.23 728.299 424.23H663.466C660.081 424.23 656.983 421.637 655.83 417.819V417.747Z" fill="#FA921C"/>
<path d="M12.4722 352.547H156.329C162.452 352.547 166.054 344.119 162.597 337.924C142.858 303.13 94.666 217.983 94.666 217.983C74.2797 184.197 53.9654 150.484 33.579 116.699C27.3839 106.47 21.2607 96.2407 15.0655 86.0115C6.85337 72.3966 -0.278269 62.0954 0.0819138 44.3744C0.15395 39.4038 -0.134196 18.9456 0.0819138 14.1912C0.442097 6.4833 6.27707 0.0718871 12.4722 0.0718871L175.923 0.0718871C179.813 0.0718871 304.149 0.0720366 325.76 0C332.891 0 338.582 7.20366 338.582 16.2082V56.0445C338.582 64.6168 333.107 71.5323 326.264 71.5323L102.014 71.5323C95.8907 71.5323 92.2888 79.9605 95.7465 86.0836C114.98 120.085 161.156 201.63 161.156 201.63C179.813 232.534 198.399 263.438 217.056 294.269L241.044 334.034C251.058 350.602 256.893 362.704 256.893 377.904C256.893 384.748 257.109 396.922 256.604 405.926C256.1 415.651 251.202 423.935 243.782 423.935H12.3282C5.55678 423.935 0.00991676 417.02 0.00991676 408.447L0.00991676 367.963C0.00991676 359.391 5.48475 352.475 12.3282 352.475L12.4722 352.547Z" fill="#FA921C"/>
</g>
</svg>
