<svg width="373" height="1388" viewBox="0 0 373 1388" fill="none" xmlns="http://www.w3.org/2000/svg">
<g style="mix-blend-mode:saturation" opacity="0.4">
<path d="M13.6983 787.541H359.654C367.2 787.541 373.287 793.628 373.287 801.173V986.009C373.287 993.554 367.2 999.642 359.654 999.642H323.765C316.22 999.642 310.133 993.554 310.133 986.009V876.566C310.133 869.02 304.045 862.933 296.5 862.933H241.017C233.472 862.933 227.384 869.02 227.384 876.566L227.384 1036.67C227.384 1044.22 221.297 1050.31 213.752 1050.31H178.116C170.571 1050.31 164.483 1044.22 164.483 1036.67L164.483 876.566C164.483 869.02 158.396 862.933 150.851 862.933H76.536C68.9904 862.933 62.9031 869.02 62.9031 876.566V1057.79C62.9031 1065.33 56.8159 1071.42 49.2703 1071.42H13.6349C6.08923 1071.42 0.0020752 1065.33 0.0020752 1057.79V801.237C0.0020752 793.691 6.08923 787.604 13.6349 787.604L13.6983 787.541Z" fill="#FA921C"/>
<path d="M367.581 365.43L11.479 259.221C5.89905 257.572 0.0655518 260.996 0.0655518 265.942V318.888C0.0655518 321.932 2.4115 324.658 5.83554 325.61L252.304 395.929C260.04 398.149 259.976 407.279 252.241 409.435L5.96249 477.409C2.47501 478.36 0.128815 481.087 0.128815 484.194V535.618C0.128815 540.564 5.96252 543.988 11.5424 542.339L367.644 435.94C371.005 434.925 373.287 432.262 373.287 429.219V372.151C373.287 369.171 371.005 366.444 367.644 365.43H367.581Z" fill="#FA921C"/>
<path d="M5.70673 577.278L361.808 471.069C367.388 469.42 373.222 472.844 373.222 477.79V530.736C373.222 533.78 370.876 536.506 367.452 537.457L120.983 607.777C113.247 609.997 113.311 619.127 121.047 621.283L367.325 689.257C370.812 690.208 373.158 692.935 373.158 696.042V747.466C373.158 752.412 367.325 755.836 361.745 754.187L5.64325 647.788C2.28259 646.773 0 644.11 0 641.067V583.999C0 581.019 2.28259 578.292 5.64325 577.278H5.70673Z" fill="#FA921C"/>
<path d="M165.316 1328.67C165.316 1343 165.316 1347.69 165.316 1350.16C165.316 1354.92 164.809 1374.64 166.838 1380.53C170.072 1389.79 185.734 1387.83 204.503 1387.83H238.933C245.084 1387.83 251.044 1385.73 255.61 1381.87C286.363 1355.99 333.792 1313.38 360.994 1289.99C364.926 1286.63 368.857 1283.2 371.393 1278.83C375.071 1272.55 373.042 1265.45 373.169 1258.66C373.232 1253.34 373.169 1248.01 373.169 1242.68V1041.04C373.169 1036.29 367.082 1032.36 359.536 1032.36H323.9C316.355 1032.36 310.268 1036.23 310.268 1041.04C310.268 1041.04 310.268 1068.44 310.268 1103.82H18.0819C8.25357 1103.82 0.26413 1109.46 0.26413 1116.37V1154.23C0.26413 1161.2 8.25357 1166.78 18.0819 1166.78C18.0819 1166.78 87.5774 1166.78 164.238 1166.78C164.238 1208.13 164.238 1233.62 164.238 1259.55C151.366 1265.13 6.73172 1328.28 6.73172 1328.28C1.21518 1330.69 -1.38464 1335.58 0.898071 1342.23L15.7991 1379.27C18.0818 1385.92 24.4226 1389.41 29.8757 1387.06L165.316 1328.6V1328.67ZM310.331 1166.85C310.331 1186.5 310.331 1201.15 310.331 1218.4C310.331 1231.9 310.014 1255.43 304.624 1260.88C284.714 1281.05 267.213 1295.95 266.579 1296.58C258.336 1304.51 242.357 1303.56 235.573 1301.02C227.837 1298.17 227.52 1289.1 227.52 1273.75C227.52 1251.56 227.52 1198.23 227.52 1166.91C258.527 1166.91 287.821 1166.91 310.395 1166.91L310.331 1166.85Z" fill="#FA921C"/>
<path d="M63.0976 10.9784V137.605C63.0976 142.995 70.5164 146.165 75.9695 143.121C106.596 125.748 181.544 83.3274 181.544 83.3274C211.283 65.3828 240.958 47.5016 270.697 29.5571C279.701 24.1039 288.705 18.7142 297.709 13.2611C309.693 6.0325 318.76 -0.244939 334.359 0.0721025C338.734 0.135511 356.742 -0.118123 360.927 0.0721025C367.711 0.389145 373.355 5.52523 373.355 10.9784V154.852C373.355 158.276 373.355 267.719 373.418 286.742C373.418 293.019 367.077 298.028 359.151 298.028H324.086C316.541 298.028 310.454 293.209 310.454 287.185V89.795C310.454 84.4053 303.035 81.2348 297.645 84.2784C267.716 101.208 195.938 141.853 195.938 141.853C168.736 158.276 141.534 174.635 114.395 191.058L79.3934 212.173C64.8095 220.987 54.1569 226.123 40.7777 226.123C34.7539 226.123 24.038 226.313 16.112 225.869C7.55185 225.426 0.259888 221.114 0.259888 214.583V10.8516C0.259888 4.89122 6.34705 0.00872897 13.8926 0.00872897L49.5281 0.00872897C57.0737 0.00872897 63.1609 4.82781 63.1609 10.8516L63.0976 10.9784Z" fill="#FA921C"/>
</g>
</svg>
