<svg width="175" height="128" viewBox="0 0 175 128" fill="none" xmlns="http://www.w3.org/2000/svg">
<path d="M0.792969 30.1366V1.17166C0.792969 0.537199 1.29796 0.0322266 1.93242 0.0322266H17.4056C18.04 0.0322266 18.545 0.537199 18.545 1.17166V4.17562C18.545 4.81008 18.04 5.31506 17.4056 5.31506H8.23822C7.60375 5.31506 7.09876 5.82003 7.09876 6.45449V11.1029C7.09876 11.7373 7.60375 12.2423 8.23822 12.2423H21.6397C22.2741 12.2423 22.7791 12.7473 22.7791 13.3817V16.3598C22.7791 16.9943 22.2741 17.4992 21.6397 17.4992H8.23822C7.60375 17.4992 7.09876 18.0042 7.09876 18.6387V24.8667C7.09876 25.5012 7.60375 26.0061 8.23822 26.0061H23.4136C24.048 26.0061 24.553 26.5111 24.553 27.1456V30.1236C24.553 30.7581 24.048 31.2631 23.4136 31.2631H1.93242C1.29796 31.2631 0.792969 30.7581 0.792969 30.1236V30.1366Z" fill="#2952D8"/>
<path d="M123.089 30.1502V1.18533C123.089 0.550871 123.594 0.0458984 124.228 0.0458984H139.701C140.336 0.0458984 140.841 0.550871 140.841 1.18533V4.18929C140.841 4.82375 140.336 5.32872 139.701 5.32872H130.534C129.9 5.32872 129.395 5.8337 129.395 6.46816V11.1165C129.395 11.751 129.9 12.256 130.534 12.256H143.936C144.57 12.256 145.075 12.7609 145.075 13.3954V16.3735C145.075 17.0079 144.57 17.5129 143.936 17.5129H130.534C129.9 17.5129 129.395 18.0179 129.395 18.6523V24.8804C129.395 25.5148 129.9 26.0198 130.534 26.0198H145.709C146.344 26.0198 146.849 26.5248 146.849 27.1592V30.1373C146.849 30.7718 146.344 31.2767 145.709 31.2767H124.228C123.594 31.2767 123.089 30.7718 123.089 30.1373V30.1502Z" fill="#2952D8"/>
<path d="M87.7421 0.524972L78.8467 30.3445C78.7043 30.8106 79.0021 31.3026 79.4035 31.3026H83.8447C84.1037 31.3026 84.3238 31.1084 84.4144 30.8236L90.3059 10.1843C90.4872 9.53686 91.2511 9.53686 91.4324 10.1843L97.1296 30.8106C97.2073 31.1084 97.4404 31.3026 97.6993 31.3026H102.011C102.425 31.3026 102.71 30.8106 102.568 30.3445L93.6595 0.524972C93.5689 0.240114 93.3487 0.0458984 93.1027 0.0458984H88.3248C88.0788 0.0458984 87.8457 0.240114 87.768 0.524972H87.7421Z" fill="#2952D8"/>
<path d="M105.478 30.8236L96.583 1.00406C96.4406 0.537924 96.7384 0.0458984 97.1398 0.0458984H101.581C101.84 0.0458984 102.06 0.240114 102.151 0.524972L108.042 21.1643C108.224 21.8117 108.987 21.8117 109.169 21.1643L114.866 0.537923C114.944 0.240117 115.177 0.0458984 115.436 0.0458984H119.747C120.162 0.0458984 120.447 0.537924 120.304 1.00406L111.396 30.8236C111.305 31.1084 111.085 31.3026 110.839 31.3026H106.061C105.815 31.3026 105.582 31.1084 105.504 30.8236H105.478Z" fill="#2952D8"/>
<path d="M168.398 17.4607C169.602 17.4607 169.991 17.4607 170.198 17.4607C170.599 17.4607 172.244 17.4996 172.749 17.3312C173.526 17.0593 173.357 15.7516 173.357 14.1719V11.2845C173.357 10.7666 173.176 10.2745 172.865 9.88608C170.703 7.3094 167.129 3.34728 165.174 1.05547C164.889 0.731763 164.604 0.395115 164.242 0.187945C163.711 -0.12281 163.128 0.0455148 162.559 0.0455148C162.118 0.0455148 161.665 0.0455148 161.225 0.0455148H144.34C143.939 0.0455148 143.615 0.550488 143.615 1.18494V4.16301C143.615 4.79747 143.939 5.30244 144.34 5.30244C144.34 5.30244 146.632 5.30244 149.597 5.30244V29.7614C149.597 30.5901 150.063 31.2505 150.646 31.2505H153.818C154.401 31.2505 154.867 30.5772 154.867 29.7614C154.867 29.7614 154.867 23.9477 154.867 17.5255C158.324 17.5255 160.461 17.5255 162.636 17.5255C163.102 18.6002 168.385 30.7196 168.385 30.7196C168.579 31.1857 168.994 31.3929 169.551 31.2116L172.645 29.9686C173.202 29.7744 173.5 29.2435 173.293 28.7903L168.398 17.4478V17.4607ZM154.854 5.3154C156.499 5.3154 157.729 5.3154 159.166 5.3154C160.293 5.3154 162.261 5.34129 162.727 5.79447C164.41 7.46478 165.666 8.92791 165.718 8.9797C166.378 9.66595 166.301 11.0126 166.093 11.5693C165.847 12.2167 165.096 12.2426 163.815 12.2426C161.95 12.2426 157.496 12.2426 154.867 12.2426C154.867 9.64006 154.867 7.19287 154.867 5.30244L154.854 5.3154Z" fill="#2952D8"/>
<path d="M45.3574 26.0193H34.7528C34.2996 26.0193 34.0406 25.3978 34.2866 24.9446C35.7368 22.3809 39.2976 16.1011 39.2976 16.1011C40.7996 13.615 42.3016 11.129 43.8036 8.63003L45.1632 6.36411C45.7718 5.35416 46.2897 4.60316 46.2638 3.2954C46.2638 2.93285 46.2767 1.41793 46.2638 1.06833C46.2379 0.498618 45.8106 0.0195312 45.3574 0.0195312H33.3026C33.0177 0.0195312 23.8504 0.0195312 22.2577 0.0195312C21.7398 0.0195312 21.3125 0.550401 21.3125 1.21076V4.14998C21.3125 4.78444 21.7139 5.28941 22.2189 5.28941H38.7408C39.194 5.28941 39.453 5.91092 39.207 6.36411C37.7827 8.86309 34.3902 14.884 34.3902 14.884C33.0177 17.1628 31.6452 19.4417 30.2727 21.7076L28.4988 24.6339C27.7607 25.851 27.3334 26.7444 27.3334 27.8709C27.3334 28.3759 27.3205 29.2693 27.3593 29.9297C27.3982 30.6548 27.7607 31.2504 28.3046 31.2504H45.3574C45.8624 31.2504 46.2638 30.7454 46.2638 30.1109V27.1329C46.2638 26.4984 45.8624 25.9935 45.3574 25.9935V26.0193Z" fill="#2952D8"/>
<path d="M58.0654 26.0193H68.6701C69.1233 26.0193 69.3822 25.3978 69.1362 24.9446C67.686 22.3809 64.1252 16.1011 64.1252 16.1011C62.6232 13.615 61.1213 11.129 59.6193 8.63003C59.1661 7.87904 58.7129 7.12805 58.2597 6.36411C57.6511 5.35416 57.1332 4.60316 57.1591 3.2954C57.1591 2.93285 57.1461 1.41793 57.1591 1.06833C57.185 0.498618 57.6123 0.0195312 58.0654 0.0195312H70.1203C70.4052 0.0195312 79.5725 0.0195312 81.1652 0.0195312C81.6831 0.0195312 82.1104 0.550401 82.1104 1.21076V4.14998C82.1104 4.78444 81.709 5.28941 81.204 5.28941H64.682C64.2288 5.28941 63.9699 5.91092 64.2159 6.36411C65.6402 8.86309 69.0326 14.884 69.0326 14.884C70.4051 17.1628 71.7777 19.4417 73.1502 21.7076C73.7458 22.6787 74.3285 23.6628 74.9241 24.6339C75.6621 25.851 76.0894 26.7444 76.0894 27.8709C76.0894 28.3759 76.1024 29.2693 76.0635 29.9297C76.0247 30.6548 75.6621 31.2504 75.1183 31.2504H58.0654C57.5605 31.2504 57.1591 30.7454 57.1591 30.1109V27.1329C57.1591 26.4984 57.5605 25.9935 58.0654 25.9935V26.0193Z" fill="#2952D8"/>
<path d="M54.4658 16.011H45.1689C44.7805 16.011 44.4697 16.516 44.4697 17.1504V20.1285C44.4697 20.7629 44.7805 21.2679 45.1689 21.2679H58.3373C58.7258 21.2679 59.0365 20.7629 59.0365 20.1285V17.1893C59.0365 16.5289 58.7128 15.998 58.3114 15.998C57.0813 15.998 54.6989 15.998 54.4787 15.998L54.4658 16.011Z" fill="#2952D8"/>
<path fill-rule="evenodd" clip-rule="evenodd" d="M67.186 105.871C61.7736 105.871 57.0605 109.911 56.2447 115.259C56.1541 115.803 56.1152 116.372 56.1152 116.929C56.1152 123.028 61.0744 127.987 67.186 127.987C73.2976 127.987 78.2438 123.028 78.2438 116.929C78.2438 116.359 78.205 115.79 78.1143 115.259C77.2986 109.898 72.5984 105.858 67.186 105.858V105.871Z" fill="#FA921C"/>
<path fill-rule="evenodd" clip-rule="evenodd" d="M126.877 105.871C121.452 105.871 116.752 109.911 115.936 115.258C115.845 115.802 115.807 116.372 115.807 116.942C115.807 123.04 120.779 127.999 126.877 127.999C132.976 127.999 137.935 123.04 137.935 116.942C137.935 116.372 137.896 115.815 137.806 115.271C136.99 109.911 132.29 105.871 126.877 105.871Z" fill="#FA921C"/>
<path fill-rule="evenodd" clip-rule="evenodd" d="M172.339 39.0722C170.785 38.5802 165.58 38.7097 164.324 38.6967C162.356 38.6967 128.678 38.7097 86.0262 38.7226H84.1746C82.5819 38.7226 81.2871 40.0304 81.2871 41.61V51.3729C81.2871 52.9526 82.5819 54.2474 84.1616 54.2474H109.255C109.385 54.2474 135.993 54.2604 144.138 54.2604C148.191 54.2604 150.573 54.338 151.337 56.2155C151.998 57.8599 150.716 60.1776 148.631 62.1846C148.087 62.7155 107.702 99.1256 107.391 99.4363C107.261 99.5658 107.145 99.7082 107.08 99.8895C107.015 100.058 107.015 100.239 107.015 100.42C106.925 103.334 106.925 105.755 106.925 108.668C106.925 109.199 106.925 109.743 106.925 110.274C106.925 111.038 106.938 111.633 106.938 111.931C106.938 113.524 108.232 114.819 109.812 114.819H110.718C110.861 114.819 110.99 114.715 111.029 114.56C112.479 106.946 119.174 101.43 126.943 101.43C134.712 101.43 141.38 106.959 142.843 114.573C142.869 114.715 142.999 114.819 143.154 114.819H151.001C152.593 114.819 153.888 113.524 153.888 111.931V102.168C153.888 100.576 152.593 99.2809 151.001 99.2809C143.037 99.2809 134.284 99.268 133.974 99.2421C133.378 99.0738 133.015 98.7371 132.886 98.258C132.782 97.8437 132.925 97.3258 133.248 97.028C134.427 95.9015 165.71 68.0112 168.338 65.0591C170.19 62.9744 173.518 49.7674 173.66 48.5632C174.178 44.355 174.761 39.7844 172.326 39.0075L172.339 39.0722Z" fill="#FA921C"/>
<path fill-rule="evenodd" clip-rule="evenodd" d="M97.5004 99.3205C94.8848 99.3205 91.7255 99.3205 88.346 99.3205C74.8021 99.3205 57.6586 99.2947 57.6327 99.2947C54.4086 99.2947 52.2333 97.1064 52.2333 94.3226V88.8973C52.2333 86.23 54.3309 84.5856 57.4514 84.5856H66.1786H86.0541C87.6468 84.5856 88.9416 83.2908 88.9416 81.7111V71.9353C88.9416 70.3945 87.7245 69.1385 86.1707 69.0737C86.1059 69.0737 44.3607 68.8536 44.3607 68.8536C41.4474 68.8536 38.8966 66.4582 38.8966 62.9234V59.7123C38.8966 56.6954 41.3438 54.2482 44.3607 54.2482H71.824C73.4037 54.2482 74.6985 52.9533 74.6985 51.3737V41.6108C74.6985 40.0311 73.4037 38.7363 71.8111 38.7363H22.776C22.776 38.7363 22.6853 38.7363 22.5947 38.7363H2.88746C1.29482 38.7363 0 40.0311 0 41.6108V51.3737C0 52.9533 1.29482 54.2482 2.88746 54.2482H18.27C18.3736 54.2482 18.4772 54.2482 18.5678 54.287C20.7043 54.8438 22.0638 56.9155 22.5688 58.5081C25.5469 67.7272 32.9792 89.9073 35.1934 96.5238C35.53 97.5467 35.8537 98.6084 36.2163 99.7737C38.4822 107.18 40.8259 114.832 49.307 114.832H51.0032C51.1456 114.832 51.2751 114.729 51.314 114.586C52.7642 106.973 59.4584 101.444 67.2274 101.444C74.9963 101.444 81.6647 106.973 83.1278 114.586C83.1537 114.729 83.2832 114.832 83.4386 114.832H97.4745C99.0542 114.832 100.349 113.538 100.349 111.945V101.884C100.349 100.292 99.0671 99.3076 97.4745 99.3076L97.5004 99.3205Z" fill="#FA921C"/>
</svg>
