<svg width="681" height="299" viewBox="0 0 681 299" fill="none" xmlns="http://www.w3.org/2000/svg">
<path d="M0.0390625 23.9932C0.0432148 10.7414 10.7873 0.000152588 24.0391 0H460.042C464.628 9.15527e-05 469.119 1.31439 472.981 3.78711L669 129.271C683.747 138.712 683.747 160.257 669 169.697L472.981 295.182C469.119 297.654 464.628 298.969 460.042 298.969H24.0391C10.7873 298.969 0.0432148 288.227 0.0390625 274.976L0 149.484L0.0390625 23.9932ZM559.43 148.232C559.43 164.744 572.815 178.129 589.326 178.129C605.838 178.129 619.223 164.744 619.223 148.232C619.223 131.721 605.838 118.336 589.326 118.336C572.815 118.336 559.43 131.721 559.43 148.232Z" fill="#FA921C"/>
</svg>
