<svg width="29" height="29" viewBox="0 0 29 29" fill="none" xmlns="http://www.w3.org/2000/svg">
<path d="M23.4375 11.7188C23.4375 17.5699 16.9465 23.6637 14.7668 25.5457C14.5637 25.6984 14.3166 25.781 14.0625 25.781C13.8084 25.781 13.5613 25.6984 13.3582 25.5457C11.1785 23.6637 4.6875 17.5699 4.6875 11.7188C4.6875 9.23235 5.67522 6.84778 7.43337 5.08962C9.19153 3.33147 11.5761 2.34375 14.0625 2.34375C16.5489 2.34375 18.9335 3.33147 20.6916 5.08962C22.4498 6.84778 23.4375 9.23235 23.4375 11.7188Z" stroke="#F9F9F9" stroke-width="2.34375" stroke-linecap="round" stroke-linejoin="round"/>
<path d="M14.0625 15.2344C16.0041 15.2344 17.5781 13.6604 17.5781 11.7188C17.5781 9.77712 16.0041 8.20312 14.0625 8.20312C12.1209 8.20312 10.5469 9.77712 10.5469 11.7188C10.5469 13.6604 12.1209 15.2344 14.0625 15.2344Z" stroke="#F9F9F9" stroke-width="2.34375" stroke-linecap="round" stroke-linejoin="round"/>
</svg>
