<svg width="149" height="28" viewBox="0 0 149 28" fill="none" xmlns="http://www.w3.org/2000/svg">
<path d="M110.098 23.0451V0.893419C110.098 0.410272 110.487 0.0205078 110.971 0.0205078H122.805C123.289 0.0205078 123.678 0.410272 123.678 0.893419V3.19142C123.678 3.67457 123.289 4.06433 122.805 4.06433H115.798C115.315 4.06433 114.925 4.45409 114.925 4.93724V8.4898C114.925 8.97295 115.315 9.36272 115.798 9.36272H126.049C126.533 9.36272 126.922 9.75249 126.922 10.2356V12.5174C126.922 13.0005 126.533 13.3903 126.049 13.3903H115.798C115.315 13.3903 114.925 13.7801 114.925 14.2632V19.0216C114.925 19.5048 115.315 19.8945 115.798 19.8945H127.401C127.885 19.8945 128.274 20.2843 128.274 20.7674V23.0492C128.274 23.5323 127.885 23.9221 127.401 23.9221H110.975C110.491 23.9221 110.102 23.5323 110.102 23.0492L110.098 23.0451Z" fill="#2952D8"/>
<path d="M83.0695 0.385911L76.269 23.1872C76.1634 23.5445 76.3827 23.918 76.6993 23.918H80.0895C80.2843 23.918 80.4589 23.7678 80.5198 23.5486L85.0224 7.76711C85.1645 7.27178 85.7491 7.27584 85.8871 7.77117L90.2395 23.5405C90.3004 23.7638 90.475 23.914 90.6739 23.914H93.9666C94.2832 23.914 94.5025 23.5405 94.3969 23.1832L87.5842 0.381847C87.5193 0.166664 87.3487 0.0205078 87.1539 0.0205078H83.4999C83.309 0.0205078 83.1345 0.166664 83.0695 0.381847V0.385911Z" fill="#2952D8"/>
<path d="M96.6359 23.5567L89.8354 0.755373C89.7298 0.398088 89.9491 0.0245667 90.2658 0.0245667H93.6559C93.8507 0.0245667 94.0253 0.174778 94.0862 0.394022L98.5888 16.1755C98.7309 16.6708 99.3155 16.6668 99.4536 16.1714L103.806 0.40215C103.867 0.178846 104.041 0.0286183 104.24 0.0286183H107.533C107.85 0.0286183 108.069 0.402152 107.963 0.759438L101.151 23.5608C101.086 23.7759 100.915 23.9221 100.72 23.9221H97.0663C96.8755 23.9221 96.7009 23.7759 96.6359 23.5608V23.5567Z" fill="#2952D8"/>
<path d="M144.744 13.3374C145.661 13.3374 145.962 13.3374 146.12 13.3374C146.425 13.3374 147.687 13.3699 148.065 13.24C148.658 13.0329 148.532 12.0301 148.532 10.8283V8.62369C148.532 8.22986 148.398 7.84822 148.15 7.55589C146.494 5.58676 143.765 2.54983 142.267 0.808065C142.052 0.556341 141.833 0.304611 141.553 0.142208C141.151 -0.0932757 140.696 0.0366469 140.262 0.0285268C139.921 0.0244667 139.58 0.0285268 139.239 0.0285268H126.328C126.023 0.0285268 125.771 0.41829 125.771 0.901438V3.18321C125.771 3.66635 126.019 4.05612 126.328 4.05612C126.328 4.05612 128.082 4.05612 130.347 4.05612V22.7649C130.347 23.3942 130.708 23.9058 131.151 23.9058H133.575C134.021 23.9058 134.379 23.3942 134.379 22.7649C134.379 22.7649 134.379 18.3151 134.379 13.4064C137.026 13.4064 138.658 13.4064 140.318 13.4064C140.676 14.2306 144.72 23.4916 144.72 23.4916C144.874 23.8449 145.186 24.0113 145.613 23.8652L147.984 22.9111C148.41 22.7649 148.633 22.3589 148.483 22.0097L144.74 13.3374H144.744ZM134.383 4.05205C135.641 4.05205 136.579 4.05205 137.684 4.05205C138.548 4.05205 140.055 4.07235 140.404 4.41746C141.695 5.69232 142.649 6.81289 142.69 6.8535C143.197 7.3813 143.136 8.40445 142.974 8.83887C142.791 9.3342 142.21 9.3545 141.228 9.3545C139.807 9.3545 136.392 9.3545 134.387 9.3545C134.387 7.36912 134.387 5.49337 134.387 4.04799L134.383 4.05205Z" fill="#2952D8"/>
<path d="M60.3709 19.8823H68.4788C68.8239 19.8823 69.0269 19.4073 68.832 19.0581C67.7195 17.0971 65.0034 12.2981 65.0034 12.2981C63.8544 10.394 62.7095 8.49386 61.5605 6.58969C61.2113 6.01316 60.8662 5.43663 60.5171 4.8601C60.0542 4.09274 59.6523 3.51215 59.6726 2.51338C59.6766 2.23323 59.6604 1.08019 59.6726 0.812223C59.6929 0.377796 60.0217 0.0164418 60.3709 0.0164418H69.5831C69.8023 0.0164418 76.8099 0.0164502 78.0279 0.0123901C78.4298 0.0123901 78.7506 0.418397 78.7506 0.925905V3.17112C78.7506 3.65427 78.442 4.04403 78.0563 4.04403H65.4175C65.0724 4.04403 64.8694 4.51905 65.0643 4.86416C66.1483 6.78051 68.7508 11.3765 68.7508 11.3765C69.8023 13.1183 70.8498 14.86 71.9013 16.5977L73.2533 18.8389C73.8177 19.7727 74.1465 20.4548 74.1465 21.3115C74.1465 21.6972 74.1587 22.3833 74.1303 22.8908C74.1019 23.439 73.8258 23.9059 73.4076 23.9059H60.3628C59.9812 23.9059 59.6685 23.5161 59.6685 23.0329V20.7512C59.6685 20.268 59.9771 19.8783 60.3628 19.8783L60.3709 19.8823Z" fill="#2952D8"/>
<path fill-rule="evenodd" clip-rule="evenodd" d="M21.067 21.0616C19.3699 21.0616 17.8921 22.3283 17.6363 24.0051C17.6079 24.1756 17.5957 24.3543 17.5957 24.5289C17.5957 26.4411 19.1507 27.9961 21.067 27.9961C22.9833 27.9961 24.5343 26.4411 24.5343 24.5289C24.5343 24.3502 24.5221 24.1716 24.4937 24.0051C24.2379 22.3242 22.7641 21.0575 21.067 21.0575V21.0616Z" fill="#FA921C"/>
<path fill-rule="evenodd" clip-rule="evenodd" d="M39.7838 21.0613C38.0827 21.0613 36.6089 22.3281 36.3531 24.0049C36.3247 24.1754 36.3125 24.354 36.3125 24.5327C36.3125 26.445 37.8715 28 39.7838 28C41.6961 28 43.2511 26.445 43.2511 24.5327C43.2511 24.354 43.2389 24.1795 43.2105 24.009C42.9547 22.3281 41.4809 21.0613 39.7838 21.0613Z" fill="#FA921C"/>
<path fill-rule="evenodd" clip-rule="evenodd" d="M54.0422 0.119708C53.555 -0.0345746 51.9229 0.00603496 51.529 0.00197489C50.9119 0.00197489 40.3518 0.0060305 26.9782 0.0100906H26.3976C25.8982 0.0100906 25.4922 0.420162 25.4922 0.91549V3.97677C25.4922 4.4721 25.8982 4.8781 26.3935 4.8781H34.2618C34.3024 4.8781 42.6457 4.88217 45.1995 4.88217C46.4703 4.88217 47.2173 4.90653 47.4568 5.49524C47.6639 6.01087 47.262 6.73762 46.6083 7.36693C46.4378 7.53339 33.7746 18.9503 33.6772 19.0477C33.6366 19.0883 33.6 19.133 33.5797 19.1898C33.5594 19.2426 33.5594 19.2995 33.5594 19.3563C33.531 20.2698 33.531 21.029 33.531 21.9426C33.531 22.109 33.531 22.2796 33.531 22.446C33.531 22.6856 33.5351 22.8723 33.5351 22.9657C33.5351 23.4651 33.9411 23.8711 34.4364 23.8711H34.7206C34.7652 23.8711 34.8059 23.8386 34.818 23.7899C35.2728 21.4026 37.3718 19.673 39.8078 19.673C42.2438 19.673 44.3347 21.4066 44.7935 23.794C44.8016 23.8386 44.8422 23.8711 44.8909 23.8711H47.3513C47.8507 23.8711 48.2567 23.4651 48.2567 22.9657V19.9044C48.2567 19.405 47.8507 18.999 47.3513 18.999C44.8544 18.999 42.1098 18.995 42.0124 18.9868C41.8256 18.9341 41.7119 18.8285 41.6713 18.6783C41.6389 18.5484 41.6835 18.3859 41.785 18.2926C42.1545 17.9393 51.9635 9.19396 52.7876 8.26826C53.3682 7.61459 54.4116 3.47333 54.4563 3.09574C54.6187 1.77622 54.8014 0.343016 54.0381 0.0994125L54.0422 0.119708Z" fill="#FA921C"/>
<path fill-rule="evenodd" clip-rule="evenodd" d="M30.5719 19.0111C29.7518 19.0111 28.7611 19.0111 27.7015 19.0111C23.4547 19.0111 18.0792 19.003 18.0711 19.003C17.0602 19.003 16.3781 18.3169 16.3781 17.444V15.7428C16.3781 14.9064 17.0358 14.3908 18.0143 14.3908H20.7507H26.9828C27.4822 14.3908 27.8882 13.9848 27.8882 13.4895V10.4241C27.8882 9.94095 27.5066 9.54713 27.0194 9.52683C26.9991 9.52683 13.9096 9.4578 13.9096 9.4578C12.9961 9.4578 12.1963 8.70669 12.1963 7.5983V6.5914C12.1963 5.6454 12.9636 4.87805 13.9096 4.87805H22.5209C23.0162 4.87805 23.4222 4.47204 23.4222 3.97671V0.915434C23.4222 0.420106 23.0162 0.0140991 22.5168 0.0140991H7.14156C7.14156 0.0140991 7.11314 0.0140991 7.08472 0.0140991H0.905382C0.406001 0.0140991 0 0.420106 0 0.915434V3.97671C0 4.47204 0.406001 4.87805 0.905382 4.87805H5.72868C5.76116 4.87805 5.79364 4.87805 5.82206 4.89023C6.49196 5.06481 6.91826 5.71443 7.0766 6.21381C8.0104 9.10458 10.3408 16.0595 11.0351 18.1342C11.1407 18.4549 11.2422 18.7878 11.3559 19.1532C12.0664 21.4756 12.8012 23.8751 15.4605 23.8751H15.9924C16.037 23.8751 16.0776 23.8426 16.0898 23.798C16.5445 21.4106 18.6436 19.677 21.0796 19.677C23.5156 19.677 25.6065 21.4106 26.0653 23.798C26.0734 23.8426 26.114 23.8751 26.1627 23.8751H30.5638C31.0591 23.8751 31.4651 23.4691 31.4651 22.9697V19.815C31.4651 19.3156 31.0631 19.0071 30.5638 19.0071L30.5719 19.0111Z" fill="#FA921C"/>
</svg>
