<svg width="240" height="59" viewBox="0 0 240 59" fill="none" xmlns="http://www.w3.org/2000/svg">
<path d="M156.593 38.5442V16.3929C156.593 15.9098 156.991 15.52 157.485 15.52H169.574C170.068 15.52 170.466 15.9098 170.466 16.3929V18.6909C170.466 19.174 170.068 19.5638 169.574 19.5638H162.416C161.922 19.5638 161.524 19.9535 161.524 20.4367V23.9891C161.524 24.4723 161.922 24.8621 162.416 24.8621H172.888C173.381 24.8621 173.779 25.2518 173.779 25.7349V28.0167C173.779 28.4998 173.381 28.8896 172.888 28.8896H162.416C161.922 28.8896 161.524 29.2793 161.524 29.7624V34.5207C161.524 35.0039 161.922 35.3937 162.416 35.3937H174.269C174.762 35.3937 175.16 35.7834 175.16 36.2666V38.5483C175.16 39.0314 174.762 39.4212 174.269 39.4212H157.489C156.996 39.4212 156.597 39.0314 156.597 38.5483L156.593 38.5442Z" fill="#FA921C"/>
<path d="M128.985 15.8854L122.039 38.6863C121.931 39.0436 122.155 39.4171 122.478 39.4171H125.941C126.14 39.4171 126.319 39.2669 126.381 39.0476L130.98 23.2665C131.125 22.7711 131.722 22.7752 131.863 23.2705L136.309 39.0395C136.371 39.2628 136.55 39.413 136.753 39.413H140.116C140.44 39.413 140.664 39.0395 140.556 38.6822L133.597 15.8814C133.53 15.6662 133.356 15.52 133.157 15.52H129.425C129.23 15.52 129.052 15.6662 128.985 15.8814V15.8854Z" fill="#FA921C"/>
<path d="M142.841 39.0558L135.895 16.255C135.787 15.8977 136.011 15.5242 136.334 15.5242H139.797C139.996 15.5242 140.175 15.6744 140.237 15.8936L144.836 31.6748C144.981 32.1701 145.579 32.166 145.72 31.6707L150.165 15.9017C150.228 15.6784 150.406 15.5282 150.609 15.5282H153.972C154.296 15.5282 154.52 15.9017 154.412 16.259L147.453 39.0599C147.387 39.2751 147.213 39.4212 147.013 39.4212H143.281C143.086 39.4212 142.908 39.2751 142.841 39.0599V39.0558Z" fill="#FA921C"/>
<path d="M191.985 28.8372C192.923 28.8372 193.229 28.8372 193.391 28.8372C193.702 28.8372 194.992 28.8696 195.378 28.7397C195.983 28.5327 195.855 27.5298 195.855 26.3281V24.1235C195.855 23.7297 195.718 23.3481 195.465 23.0557C193.773 21.0866 190.986 18.0498 189.456 16.308C189.236 16.0563 189.012 15.8046 188.726 15.6422C188.315 15.4067 187.851 15.5366 187.407 15.5285C187.058 15.5245 186.71 15.5285 186.362 15.5285H173.174C172.863 15.5285 172.605 15.9183 172.605 16.4014V18.6831C172.605 19.1663 172.858 19.556 173.174 19.556C173.174 19.556 174.965 19.556 177.279 19.556V38.2644C177.279 38.8937 177.648 39.4053 178.101 39.4053H180.576C181.033 39.4053 181.398 38.8937 181.398 38.2644C181.398 38.2644 181.398 33.8147 181.398 28.9062C184.102 28.9062 185.769 28.9062 187.465 28.9062C187.83 29.7304 191.96 38.9912 191.96 38.9912C192.118 39.3444 192.437 39.5109 192.873 39.3647L195.295 38.4106C195.73 38.2645 195.958 37.8585 195.805 37.5093L191.981 28.8372H191.985ZM181.402 19.552C182.687 19.552 183.645 19.552 184.773 19.552C185.657 19.552 187.195 19.5723 187.552 19.9174C188.871 21.1922 189.845 22.3128 189.887 22.3534C190.405 22.8812 190.343 23.9043 190.177 24.3387C189.991 24.834 189.397 24.8543 188.394 24.8543C186.942 24.8543 183.455 24.8543 181.406 24.8543C181.406 22.869 181.406 20.9933 181.406 19.5479L181.402 19.552Z" fill="#FA921C"/>
<path d="M105.803 35.3815H114.084C114.437 35.3815 114.644 34.9065 114.445 34.5573C113.309 32.5964 110.534 27.7975 110.534 27.7975C109.361 25.8933 108.191 23.9933 107.018 22.0891C106.661 21.5126 106.308 20.9361 105.952 20.3596C105.479 19.5922 105.068 19.0117 105.089 18.0129C105.093 17.7328 105.077 16.5797 105.089 16.3118C105.11 15.8774 105.446 15.516 105.803 15.516H115.213C115.436 15.516 122.595 15.516 123.839 15.512C124.249 15.512 124.577 15.918 124.577 16.4255V18.6706C124.577 19.1538 124.262 19.5435 123.868 19.5435H110.957C110.605 19.5435 110.398 20.0185 110.597 20.3636C111.704 22.28 114.362 26.8759 114.362 26.8759C115.436 28.6176 116.506 30.3593 117.581 32.097L118.962 34.3381C119.538 35.2719 119.874 35.954 119.874 36.8106C119.874 37.1963 119.886 37.8825 119.857 38.39C119.828 38.9381 119.546 39.405 119.119 39.405H105.794C105.404 39.405 105.085 39.0152 105.085 38.5321V36.2504C105.085 35.7672 105.4 35.3775 105.794 35.3775L105.803 35.3815Z" fill="#FA921C"/>
<path fill-rule="evenodd" clip-rule="evenodd" d="M65.6538 36.5612C63.9202 36.5612 62.4107 37.8279 62.1494 39.5047C62.1204 39.6752 62.1079 39.8538 62.1079 40.0284C62.1079 41.9407 63.6963 43.4956 65.6538 43.4956C67.6112 43.4956 69.1955 41.9407 69.1955 40.0284C69.1955 39.8498 69.183 39.6711 69.154 39.5047C68.8927 37.8238 67.3873 36.5571 65.6538 36.5571V36.5612Z" fill="#FA921C"/>
<path fill-rule="evenodd" clip-rule="evenodd" d="M84.7724 36.5615C83.0347 36.5615 81.5293 37.8282 81.268 39.505C81.239 39.6755 81.2266 39.8542 81.2266 40.0328C81.2266 41.9451 82.8191 43.5 84.7724 43.5C86.7258 43.5 88.3141 41.9451 88.3141 40.0328C88.3141 39.8542 88.3017 39.6796 88.2727 39.5091C88.0114 37.8282 86.5059 36.5615 84.7724 36.5615Z" fill="#FA921C"/>
<path fill-rule="evenodd" clip-rule="evenodd" d="M99.333 15.6199C98.8354 15.4657 97.1682 15.5063 96.7659 15.5022C96.1355 15.5022 85.3487 15.5063 71.6878 15.5103H71.0947C70.5846 15.5103 70.1699 15.9204 70.1699 16.4157V19.4769C70.1699 19.9723 70.5846 20.3783 71.0906 20.3783H79.1279C79.1693 20.3783 87.6918 20.3823 90.3004 20.3823C91.5985 20.3823 92.3616 20.4067 92.6063 20.9954C92.8178 21.511 92.4072 22.2377 91.7395 22.867C91.5653 23.0335 78.6302 34.4502 78.5307 34.5476C78.4892 34.5882 78.4519 34.6329 78.4311 34.6897C78.4104 34.7425 78.4104 34.7993 78.4104 34.8562C78.3814 35.7697 78.3814 36.5289 78.3814 37.4424C78.3814 37.6088 78.3814 37.7794 78.3814 37.9458C78.3814 38.1854 78.3855 38.3721 78.3855 38.4655C78.3855 38.9649 78.8002 39.3709 79.3062 39.3709H79.5965C79.6421 39.3709 79.6836 39.3384 79.696 39.2897C80.1605 36.9024 82.3046 35.1728 84.7929 35.1728C87.2813 35.1728 89.4171 36.9065 89.8857 39.2937C89.894 39.3384 89.9355 39.3709 89.9852 39.3709H92.4984C93.0085 39.3709 93.4233 38.9649 93.4233 38.4655V35.4043C93.4233 34.9049 93.0085 34.4989 92.4984 34.4989C89.9479 34.4989 87.1444 34.4948 87.0449 34.4867C86.8541 34.4339 86.738 34.3284 86.6965 34.1782C86.6633 34.0482 86.709 33.8858 86.8126 33.7924C87.19 33.4392 97.2097 24.694 98.0515 23.7683C98.6446 23.1147 99.7104 18.9735 99.756 18.5959C99.9219 17.2764 100.109 15.8433 99.3289 15.5997L99.333 15.6199Z" fill="#FA921C"/>
<path fill-rule="evenodd" clip-rule="evenodd" d="M75.3622 34.5106C74.5245 34.5106 73.5126 34.5106 72.4301 34.5106C68.0922 34.5106 62.6013 34.5025 62.593 34.5025C61.5603 34.5025 60.8636 33.8163 60.8636 32.9434V31.2423C60.8636 30.4059 61.5354 29.8903 62.5349 29.8903H65.3301H71.6961C72.2062 29.8903 72.6209 29.4843 72.6209 28.989V25.9237C72.6209 25.4406 72.2311 25.0468 71.7334 25.0265C71.7127 25.0265 58.3421 24.9574 58.3421 24.9574C57.409 24.9574 56.592 24.2063 56.592 23.098V22.0911C56.592 21.1451 57.3758 20.3778 58.3421 20.3778H67.1383C67.6443 20.3778 68.059 19.9718 68.059 19.4765V16.4152C68.059 15.9199 67.6443 15.5139 67.1342 15.5139H51.4287C51.4287 15.5139 51.3997 15.5139 51.3707 15.5139H45.0586C44.5485 15.5139 44.1338 15.9199 44.1338 16.4152V19.4765C44.1338 19.9718 44.5485 20.3778 45.0586 20.3778H49.9855C50.0187 20.3778 50.0518 20.3778 50.0809 20.39C50.7652 20.5645 51.2006 21.2141 51.3624 21.7135C52.3162 24.6042 54.6967 31.559 55.4059 33.6336C55.5137 33.9544 55.6174 34.2873 55.7335 34.6527C56.4593 36.975 57.2099 39.3744 59.9263 39.3744H60.4696C60.5152 39.3744 60.5567 39.342 60.5691 39.2973C61.0336 36.91 63.1777 35.1764 65.666 35.1764C68.1544 35.1764 70.2902 36.91 70.7588 39.2973C70.7671 39.342 70.8086 39.3744 70.8583 39.3744H75.3539C75.8599 39.3744 76.2746 38.9684 76.2746 38.4691V35.3145C76.2746 34.8151 75.864 34.5065 75.3539 34.5065L75.3622 34.5106Z" fill="#FA921C"/>
</svg>
