<svg width="1440" height="997" viewBox="0 0 1440 997" fill="none" xmlns="http://www.w3.org/2000/svg">
<mask id="mask0_625_19833" style="mask-type:alpha" maskUnits="userSpaceOnUse" x="-47" y="-426" width="1534" height="1415">
<path d="M1440 374C1448.44 375.721 1453.6 378.842 1460.41 384.395C1482.45 402.429 1486.01 438.066 1486.89 466.709C1487.6 496.059 1485.31 528.592 1464.5 549.278C1442.81 570.849 1408.96 572.264 1378.45 572.44C1203.71 573.148 1028.96 573.854 854.223 574.385C842.585 574.385 830.242 574.739 820.721 581.457C805.909 591.889 804.674 613.106 804.674 631.141C804.674 667.386 805.027 703.455 805.203 739.7C805.203 750.132 805.556 761.094 811.198 769.935C821.073 784.963 842.057 786.733 860.042 786.729C870.891 786.728 1104.01 786.739 1215.17 786.725C1242.15 786.725 1267.72 789.643 1286.59 806.329C1300.69 822.595 1305.8 847.2 1306.51 868.594C1307.92 910.144 1304.57 960.534 1267.72 979.629C1252.42 986.299 1234.05 987.777 1216.59 987.777C1185.38 987.777 556.689 988.993 552.699 989C366.497 820.502 180.289 651.297 -5.91296 482.799C-19.1376 470.776 -32.8913 458.399 -40.826 442.31C-48.7608 426.22 -49.9951 405.357 -38.8866 391.212C-29.6691 379.537 -15.1956 375.223 0.00012207 373.667V-426H1440V374Z" fill="#2952D8"/>
</mask>
<g mask="url(#mask0_625_19833)">
<path fill-rule="evenodd" clip-rule="evenodd" d="M1754.29 -13L1756 1133.27L1666.64 919.231C1665.72 917.018 1664.62 915.002 1663.38 913.257C1636.15 874.587 1594.9 874.497 1567.82 886.158C1412.12 953.168 -313.397 1461.8 -409.874 1498L-410 3.177C-409.91 2.97906 1754.31 -13 1754.31 -13H1754.29Z" fill="url(#paint0_linear_625_19833)" fill-opacity="0.5"/>
</g>
<defs>
<linearGradient id="paint0_linear_625_19833" x1="-416.765" y1="1507.49" x2="1716.09" y2="-123.04" gradientUnits="userSpaceOnUse">
<stop stop-color="#2952D8"/>
<stop offset="0.500794" stop-color="#121180"/>
<stop offset="1" stop-color="#060528"/>
</linearGradient>
</defs>
</svg>
