<svg width="680" height="299" viewBox="0 0 680 299" fill="none" xmlns="http://www.w3.org/2000/svg">
<path d="M-0.960938 23.9922C-0.956776 10.7404 9.78729 0.000152588 23.0391 0H459.042C463.628 9.15527e-05 468.119 1.31439 471.981 3.78711L668 129.271C682.747 138.711 682.747 160.256 668 169.696L471.981 295.181C468.119 297.653 463.628 298.968 459.042 298.968H23.0391C9.78738 298.968 -0.956628 288.227 -0.960938 274.976L-1 149.483L-0.960938 23.9922ZM558.43 148.231C558.43 164.743 571.815 178.128 588.326 178.128C604.837 178.128 618.222 164.743 618.223 148.231C618.223 131.72 604.838 118.334 588.326 118.334C571.815 118.334 558.43 131.72 558.43 148.231Z" fill="#2952D8"/>
</svg>
