<svg width="152" height="28" viewBox="0 0 152 28" fill="none" xmlns="http://www.w3.org/2000/svg">
<path d="M112.459 23.0442V0.892914C112.459 0.409776 112.858 0.0200195 113.351 0.0200195H125.44C125.934 0.0200195 126.332 0.409776 126.332 0.892914V3.19087C126.332 3.67401 125.934 4.06376 125.44 4.06376H118.282C117.789 4.06376 117.391 4.45352 117.391 4.93666V8.48914C117.391 8.97228 117.789 9.36205 118.282 9.36205H128.754C129.247 9.36205 129.645 9.75181 129.645 10.2349V12.5167C129.645 12.9998 129.247 13.3896 128.754 13.3896H118.282C117.789 13.3896 117.391 13.7793 117.391 14.2624V19.0207C117.391 19.5039 117.789 19.8937 118.282 19.8937H130.135C130.628 19.8937 131.026 20.2834 131.026 20.7666V23.0483C131.026 23.5314 130.628 23.9212 130.135 23.9212H113.355C112.862 23.9212 112.464 23.5314 112.464 23.0483L112.459 23.0442Z" fill="#FA921C"/>
<path d="M84.8514 0.385416L77.9048 23.1863C77.797 23.5436 78.0209 23.9171 78.3444 23.9171H81.8073C82.0064 23.9171 82.1847 23.7669 82.2469 23.5476L86.8462 7.76647C86.9913 7.27115 87.5885 7.27521 87.7295 7.77053L92.1753 23.5395C92.2375 23.7628 92.4159 23.913 92.6191 23.913H95.9825C96.3059 23.913 96.5299 23.5395 96.4221 23.1822L89.4631 0.381352C89.3967 0.166173 89.2225 0.0200195 89.0235 0.0200195H85.291C85.0961 0.0200195 84.9177 0.166173 84.8514 0.381352V0.385416Z" fill="#FA921C"/>
<path d="M98.7073 23.5558L91.7608 0.754962C91.6529 0.397684 91.8769 0.0241699 92.2004 0.0241699H95.6633C95.8624 0.0241699 96.0407 0.174378 96.1029 0.393618L100.702 16.1748C100.847 16.6701 101.444 16.666 101.585 16.1707L106.031 0.401746C106.093 0.178446 106.272 0.0282215 106.475 0.0282215H109.838C110.162 0.0282215 110.386 0.401748 110.278 0.759026L103.319 23.5599C103.253 23.7751 103.078 23.9212 102.879 23.9212H99.1469C98.952 23.9212 98.7737 23.7751 98.7073 23.5599V23.5558Z" fill="#FA921C"/>
<path d="M147.852 13.3372C148.789 13.3372 149.096 13.3372 149.257 13.3372C149.568 13.3372 150.858 13.3696 151.244 13.2397C151.849 13.0327 151.721 12.0298 151.721 10.8281V8.62352C151.721 8.2297 151.584 7.84806 151.331 7.55574C149.639 5.58665 146.852 2.54978 145.322 0.808049C145.102 0.55633 144.878 0.304605 144.592 0.142205C144.181 -0.0932739 143.717 0.0366462 143.273 0.0285262C142.925 0.0244662 142.576 0.0285262 142.228 0.0285262H129.04C128.729 0.0285262 128.472 0.418282 128.472 0.901421V3.18314C128.472 3.66628 128.725 4.05604 129.04 4.05604C129.04 4.05604 130.831 4.05604 133.146 4.05604V22.7644C133.146 23.3937 133.515 23.9053 133.967 23.9053H136.443C136.899 23.9053 137.264 23.3937 137.264 22.7644C137.264 22.7644 137.264 18.3147 137.264 13.4062C139.968 13.4062 141.635 13.4062 143.331 13.4062C143.696 14.2304 147.827 23.4912 147.827 23.4912C147.984 23.8444 148.304 24.0109 148.739 23.8647L151.161 22.9106C151.596 22.7645 151.825 22.3585 151.671 22.0093L147.847 13.3372H147.852ZM137.268 4.05197C138.554 4.05197 139.512 4.05197 140.64 4.05197C141.523 4.05197 143.062 4.07227 143.418 4.41737C144.737 5.69221 145.712 6.81276 145.753 6.85336C146.271 7.38116 146.209 8.40428 146.043 8.8387C145.857 9.33402 145.264 9.35431 144.26 9.35431C142.809 9.35431 139.321 9.35431 137.272 9.35431C137.272 7.36898 137.272 5.49326 137.272 4.04791L137.268 4.05197Z" fill="#FA921C"/>
<path d="M61.6687 19.8815H69.9507C70.3032 19.8815 70.5105 19.4065 70.3115 19.0573C69.1751 17.0964 66.4007 12.2975 66.4007 12.2975C65.227 10.3933 64.0575 8.49327 62.8839 6.58913C62.5272 6.01261 62.1747 5.43609 61.818 4.85957C61.3452 4.09224 60.9347 3.51166 60.9554 2.5129C60.9595 2.23276 60.943 1.07974 60.9554 0.811781C60.9761 0.377362 61.3121 0.0160145 61.6687 0.0160145H71.0787C71.3027 0.0160145 78.4607 0.0160229 79.7049 0.0119629C80.1155 0.0119629 80.4431 0.417961 80.4431 0.92546V3.17063C80.4431 3.65377 80.1279 4.04353 79.7339 4.04353H66.8237C66.4712 4.04353 66.2638 4.51854 66.4629 4.86364C67.5702 6.77995 70.2285 11.3759 70.2285 11.3759C71.3027 13.1176 72.3726 14.8593 73.4468 16.597L74.8278 18.8381C75.4043 19.7719 75.7402 20.454 75.7402 21.3106C75.7402 21.6963 75.7526 22.3825 75.7236 22.89C75.6945 23.4381 75.4125 23.905 74.9854 23.905H61.6604C61.2706 23.905 60.9513 23.5152 60.9513 23.0321V20.7504C60.9513 20.2672 61.2664 19.8775 61.6604 19.8775L61.6687 19.8815Z" fill="#FA921C"/>
<path fill-rule="evenodd" clip-rule="evenodd" d="M21.52 21.0612C19.7864 21.0612 18.2769 22.3279 18.0156 24.0047C17.9866 24.1752 17.9741 24.3538 17.9741 24.5284C17.9741 26.4407 19.5625 27.9956 21.52 27.9956C23.4775 27.9956 25.0617 26.4407 25.0617 24.5284C25.0617 24.3498 25.0492 24.1711 25.0202 24.0047C24.7589 22.3238 23.2535 21.0571 21.52 21.0571V21.0612Z" fill="#FA921C"/>
<path fill-rule="evenodd" clip-rule="evenodd" d="M40.6386 21.0615C38.901 21.0615 37.3955 22.3282 37.1342 24.005C37.1052 24.1755 37.0928 24.3542 37.0928 24.5328C37.0928 26.4451 38.6853 28 40.6386 28C42.592 28 44.1803 26.4451 44.1803 24.5328C44.1803 24.3542 44.1679 24.1796 44.1389 24.0091C43.8776 22.3282 42.3722 21.0615 40.6386 21.0615Z" fill="#FA921C"/>
<path fill-rule="evenodd" clip-rule="evenodd" d="M55.1992 0.11995C54.7016 -0.0343298 53.0344 0.00627898 52.6321 0.00221899C52.0017 0.00221899 41.2149 0.00627452 27.554 0.0103345H26.961C26.4509 0.0103345 26.0361 0.420397 26.0361 0.915716V3.97694C26.0361 4.47225 26.4509 4.87825 26.9568 4.87825H34.9941C35.0356 4.87825 43.5581 4.88232 46.1666 4.88232C47.4647 4.88232 48.2278 4.90668 48.4725 5.49538C48.684 6.011 48.2734 6.73773 47.6057 7.36703C47.4315 7.53348 34.4964 18.9502 34.3969 19.0476C34.3554 19.0882 34.3181 19.1329 34.2974 19.1897C34.2766 19.2425 34.2766 19.2993 34.2766 19.3562C34.2476 20.2697 34.2476 21.0289 34.2476 21.9424C34.2476 22.1088 34.2476 22.2794 34.2476 22.4458C34.2476 22.6854 34.2517 22.8721 34.2517 22.9655C34.2517 23.4649 34.6665 23.8709 35.1724 23.8709H35.4627C35.5083 23.8709 35.5498 23.8384 35.5622 23.7897C36.0267 21.4024 38.1708 19.6728 40.6592 19.6728C43.1475 19.6728 45.2833 21.4065 45.7519 23.7937C45.7602 23.8384 45.8017 23.8709 45.8514 23.8709H48.3646C48.8748 23.8709 49.2895 23.4649 49.2895 22.9655V19.9043C49.2895 19.4049 48.8748 18.9989 48.3646 18.9989C45.8141 18.9989 43.0106 18.9948 42.9111 18.9867C42.7203 18.9339 42.6042 18.8284 42.5627 18.6782C42.5295 18.5482 42.5752 18.3858 42.6788 18.2924C43.0562 17.9392 53.0759 9.19402 53.9177 8.26834C54.5108 7.61469 55.5766 3.4735 55.6222 3.09593C55.7881 1.77643 55.9748 0.343254 55.1951 0.0996547L55.1992 0.11995Z" fill="#FA921C"/>
<path fill-rule="evenodd" clip-rule="evenodd" d="M31.2284 19.0106C30.3907 19.0106 29.3788 19.0106 28.2963 19.0106C23.9584 19.0106 18.4675 19.0025 18.4592 19.0025C17.4265 19.0025 16.7298 18.3163 16.7298 17.4434V15.7423C16.7298 14.9059 17.4017 14.3903 18.4011 14.3903H21.1963H27.5623C28.0724 14.3903 28.4871 13.9843 28.4871 13.489V10.4237C28.4871 9.94057 28.0973 9.54676 27.5996 9.52646C27.5789 9.52646 14.2083 9.45743 14.2083 9.45743C13.2752 9.45743 12.4582 8.70634 12.4582 7.59797V6.59109C12.4582 5.64511 13.242 4.87777 14.2083 4.87777H23.0045C23.5105 4.87777 23.9252 4.47177 23.9252 3.97645V0.915233C23.9252 0.419915 23.5105 0.013916 23.0004 0.013916H7.29493C7.29493 0.013916 7.26589 0.013916 7.23686 0.013916H0.924825C0.41472 0.013916 0 0.419915 0 0.915233V3.97645C0 4.47177 0.41472 4.87777 0.924825 4.87777H5.8517C5.88488 4.87777 5.91806 4.87777 5.94709 4.88995C6.63137 5.06453 7.06683 5.71413 7.22857 6.21351C8.18243 9.10422 10.5629 16.059 11.2721 18.1336C11.3799 18.4544 11.4836 18.7873 11.5997 19.1527C12.3255 21.475 13.0761 23.8744 15.7925 23.8744H16.3358C16.3814 23.8744 16.4229 23.842 16.4354 23.7973C16.8998 21.41 19.0439 19.6764 21.5323 19.6764C24.0206 19.6764 26.1564 21.41 26.625 23.7973C26.6333 23.842 26.6748 23.8744 26.7246 23.8744H31.2201C31.7261 23.8744 32.1408 23.4684 32.1408 22.9691V19.8145C32.1408 19.3151 31.7302 19.0065 31.2201 19.0065L31.2284 19.0106Z" fill="#FA921C"/>
</svg>
