<svg width="1440" height="1006" viewBox="0 0 1440 1006" fill="none" xmlns="http://www.w3.org/2000/svg">
<g opacity="0.06">
<mask id="mask0_642_13840" style="mask-type:alpha" maskUnits="userSpaceOnUse" x="-1" y="0" width="1441" height="1006">
<path fill-rule="evenodd" clip-rule="evenodd" d="M0.138022 1006L-1 242.829L58.4527 385.335C59.0636 386.809 59.7944 388.151 60.6209 389.313C78.7334 415.058 106.178 415.118 124.194 407.355C227.778 362.74 1375.73 24.1044 1439.92 0L1440 995.23C1439.94 995.361 0.126043 1006 0.126043 1006H0.138022Z" fill="#14128E"/>
</mask>
<g mask="url(#mask0_642_13840)">
<path fill-rule="evenodd" clip-rule="evenodd" d="M1437.86 0L1439 763.171L1379.51 620.665C1378.89 619.191 1378.16 617.849 1377.34 616.687C1359.21 590.942 1331.75 590.882 1313.72 598.645C1210.06 643.26 61.313 981.896 -2.91602 1006L-3 10.7704C-2.94006 10.6386 1437.87 0 1437.87 0H1437.86Z" fill="#FA921C"/>
</g>
</g>
</svg>
