<svg width="788" height="425" viewBox="0 0 788 425" fill="none" xmlns="http://www.w3.org/2000/svg">
<g style="mix-blend-mode:soft-light">
<path d="M105.626 408.891V15.8599C105.626 7.28754 112.541 0.37207 121.113 0.37207H331.1C339.672 0.37207 346.588 7.28754 346.588 15.8599V56.6326C346.588 65.205 339.672 72.1204 331.1 72.1204H206.765C198.193 72.1204 191.277 79.0359 191.277 87.6082V150.64C191.277 159.213 198.193 166.128 206.765 166.128H388.658C397.23 166.128 404.145 173.044 404.145 181.616V222.101C404.145 230.673 397.23 237.588 388.658 237.588H206.765C198.193 237.588 191.277 244.504 191.277 253.076V337.503C191.277 346.075 198.193 352.991 206.765 352.991H412.646C421.218 352.991 428.133 359.907 428.133 368.479V408.963C428.133 417.536 421.218 424.451 412.646 424.451H121.186C112.613 424.451 105.698 417.536 105.698 408.963L105.626 408.891Z" fill="#FA921C"/>
<path d="M720.383 236.642C736.663 236.642 741.994 236.642 744.803 236.642C750.206 236.642 772.609 237.218 779.309 234.913C789.826 231.239 787.593 213.446 787.593 192.123V153.008C787.593 146.02 785.216 139.249 780.821 134.062C751.431 99.1243 703.022 45.2409 676.44 14.3373C672.622 9.87099 668.733 5.40462 663.762 2.52316C656.63 -1.65496 648.562 0.650215 640.854 0.506142C634.803 0.434105 628.752 0.506142 622.701 0.506142H393.625C388.222 0.506142 383.756 7.42161 383.756 15.994V56.4787C383.756 65.051 388.15 71.9665 393.625 71.9665C393.625 71.9665 424.744 71.9665 464.941 71.9665V403.911C464.941 415.077 471.352 424.153 479.204 424.153H522.21C530.134 424.153 536.473 415.077 536.473 403.911C536.473 403.911 536.473 324.959 536.473 237.867C583.441 237.867 612.4 237.867 641.863 237.867C648.202 252.49 719.95 416.806 719.95 416.806C722.688 423.073 728.235 426.026 735.799 423.433L777.868 406.504C785.432 403.911 789.394 396.707 786.728 390.512L720.311 236.642H720.383ZM536.545 71.8944C558.877 71.8944 575.517 71.8944 595.111 71.8944C610.455 71.8944 637.18 72.2545 643.376 78.3777C666.283 100.997 683.212 120.879 683.932 121.6C692.937 130.964 691.856 149.118 688.975 156.826C685.733 165.614 675.432 165.974 657.999 165.974C632.786 165.974 572.204 165.974 536.617 165.974C536.617 130.748 536.617 97.4673 536.617 71.8223L536.545 71.8944Z" fill="#FA921C"/>
<path d="M60.7412 0.518066C66.3599 0.518277 70.2498 7.14578 68.377 13.4849L0 242.331L0 0.915527C0.738537 0.65657 1.51764 0.518072 2.31934 0.518066H60.7412Z" fill="#FA921C"/>
</g>
</svg>
