<svg width="29" height="29" viewBox="0 0 29 29" fill="none" xmlns="http://www.w3.org/2000/svg">
<path d="M16.2094 19.4156C16.4514 19.5268 16.7241 19.5522 16.9825 19.4876C17.2408 19.4231 17.4695 19.2725 17.6309 19.0605L18.0469 18.5156C18.2652 18.2245 18.5483 17.9883 18.8737 17.8256C19.1992 17.6628 19.558 17.5781 19.9219 17.5781H23.4375C24.0591 17.5781 24.6552 17.8251 25.0948 18.2646C25.5343 18.7041 25.7812 19.3003 25.7812 19.9219V23.4375C25.7812 24.0591 25.5343 24.6552 25.0948 25.0948C24.6552 25.5343 24.0591 25.7812 23.4375 25.7812C17.8431 25.7812 12.4778 23.5589 8.52197 19.603C4.56612 15.6472 2.34375 10.2819 2.34375 4.6875C2.34375 4.0659 2.59068 3.46976 3.03022 3.03022C3.46976 2.59068 4.0659 2.34375 4.6875 2.34375H8.20312C8.82473 2.34375 9.42087 2.59068 9.86041 3.03022C10.2999 3.46976 10.5469 4.0659 10.5469 4.6875V8.20312C10.5469 8.56698 10.4622 8.92584 10.2994 9.25128C10.1367 9.57672 9.90046 9.85981 9.60937 10.0781L9.06094 10.4895C8.8458 10.6537 8.69416 10.8874 8.63179 11.1508C8.56941 11.4142 8.60014 11.6911 8.71875 11.9344C10.3203 15.1873 12.9544 17.8181 16.2094 19.4156Z" stroke="#F9F9F9" stroke-width="2.34375" stroke-linecap="round" stroke-linejoin="round"/>
</svg>
