<svg width="40" height="40" viewBox="0 0 40 40" fill="none" xmlns="http://www.w3.org/2000/svg">
<g clip-path="url(#clip0_1068_5009)">
<path d="M7.69998 30.2C9.39998 28.9 11.3 27.88 13.4 27.12C15.5 26.36 17.7 26 20 26C22.3 26 24.5 26.38 26.6 27.12C28.7 27.86 30.6 28.9 32.3 30.2C33.46 28.84 34.38 27.28 35.02 25.54C35.66 23.8 36 21.96 36 19.98C36 15.54 34.44 11.78 31.32 8.65996C28.2 5.53996 24.42 3.97996 20 3.97996C15.58 3.97996 11.8 5.53996 8.67998 8.65996C5.55998 11.78 3.99998 15.56 3.99998 19.98C3.99998 21.94 4.31998 23.8 4.97998 25.54C5.63998 27.28 6.53998 28.82 7.69998 30.2ZM15.02 19.98C13.66 18.62 13 16.98 13 15C13 13.02 13.68 11.38 15.02 10.02C16.36 8.65996 18.02 7.99996 20 7.99996C21.98 7.99996 23.62 8.67996 24.98 10.02C26.34 11.36 27 13.02 27 15C27 16.98 26.32 18.62 24.98 19.98C23.64 21.34 21.98 22 20 22C18.02 22 16.38 21.32 15.02 19.98ZM20 40C17.24 40 14.64 39.48 12.2 38.42C9.75998 37.36 7.63998 35.94 5.83998 34.14C4.03998 32.34 2.61998 30.22 1.55998 27.78C0.49998 25.34 -0.0200195 22.74 -0.0200195 19.98C-0.0200195 17.22 0.49998 14.62 1.55998 12.18C2.61998 9.73996 4.03998 7.61996 5.83998 5.81996C7.63998 4.01996 9.75998 2.59996 12.2 1.53996C14.64 0.479961 17.24 -0.0400391 20 -0.0400391C22.76 -0.0400391 25.36 0.479961 27.8 1.53996C30.24 2.59996 32.36 4.01996 34.16 5.81996C35.96 7.61996 37.38 9.73996 38.44 12.18C39.5 14.62 40.02 17.22 40.02 19.98C40.02 22.74 39.5 25.34 38.44 27.78C37.38 30.22 35.96 32.34 34.16 34.14C32.36 35.94 30.24 37.36 27.8 38.42C25.36 39.48 22.76 40 20 40ZM25 35.22C26.56 34.7 28 33.96 29.3 33C28 32.04 26.56 31.3 25 30.78C23.44 30.26 21.76 30 20 30C18.24 30 16.56 30.26 15 30.78C13.44 31.3 12 32.04 10.7 33C12 33.96 13.44 34.7 15 35.22C16.56 35.74 18.24 36 20 36C21.76 36 23.44 35.74 25 35.22ZM22.14 17.14C22.7 16.58 23 15.86 23 14.98C23 14.1 22.72 13.4 22.14 12.82C21.58 12.26 20.86 11.96 19.98 11.96C19.1 11.96 18.4 12.24 17.82 12.82C17.24 13.4 16.96 14.1 16.96 14.98C16.96 15.86 17.24 16.56 17.82 17.14C18.4 17.72 19.1 18 19.98 18C20.86 18 21.56 17.72 22.14 17.14Z" fill="#121180"/>
</g>
<defs>
<clipPath id="clip0_1068_5009">
<rect width="40" height="40" fill="white"/>
</clipPath>
</defs>
</svg>
