<svg width="28" height="28" viewBox="0 0 28 28" fill="none" xmlns="http://www.w3.org/2000/svg">
<path d="M18.6667 19.8333V22.1667C18.6667 22.7855 18.4208 23.379 17.9832 23.8166C17.5457 24.2542 16.9522 24.5 16.3333 24.5H5.83333C5.21449 24.5 4.621 24.2542 4.18342 23.8166C3.74583 23.379 3.5 22.7855 3.5 22.1667V5.83333C3.5 5.21449 3.74583 4.621 4.18342 4.18342C4.621 3.74583 5.21449 3.5 5.83333 3.5H16.3333C16.9522 3.5 17.5457 3.74583 17.9832 4.18342C18.4208 4.621 18.6667 5.21449 18.6667 5.83333V8.16667H16.3333V5.83333H5.83333V22.1667H16.3333V19.8333H18.6667ZM21.5833 7.58333L19.9337 9.233L23.534 12.8333H11.6667V15.1667H23.534L19.9337 18.767L21.5833 20.4167L28 14L21.5833 7.58333Z" fill="#121180"/>
</svg>
