<svg width="682" height="300" viewBox="0 0 682 300" fill="none" xmlns="http://www.w3.org/2000/svg">
<path d="M682.1 23.9922C682.095 10.7406 671.351 0.000213623 658.1 0H220.712C216.126 0 211.635 1.31439 207.772 3.78711L11.0605 129.713C-3.68652 139.154 -3.68658 160.699 11.0605 170.14L207.772 296.065C211.635 298.538 216.126 299.853 220.712 299.853H658.1C671.351 299.852 682.095 289.111 682.1 275.859L682.139 149.926L682.1 23.9922ZM121.05 148.671C121.05 165.231 107.625 178.655 91.0645 178.655C74.5043 178.655 61.0793 165.231 61.0791 148.671C61.0791 132.111 74.5042 118.686 91.0645 118.686C107.625 118.686 121.05 132.111 121.05 148.671Z" fill="#121180"/>
</svg>
